# xmcd
#
# Track frame offsets: 
#        150
#        36900
#        65150
#        89850
#        105895
#        148710
#
# Disc length: 2304 seconds
#
# Revision: 2
# Processed by: cddbd v1.5.2PL0 Copyright (c) Steve Scherf et al.
# Submitted via: ExactAudioCopy v0.99pb3
#
DISCID=5508fe06
DTITLE=King Curtis and Champion Jack Dupree - Blues At Montreux
DYEAR=1973
DGENRE=Blues
TTITLE0=Junker's Blues
TTITLE1=Sneaky Pete
TTITLE2=Everything's Gonna Be Alright
TTITLE3=Get With It
TTITLE4=Poor Boy Blues
TTITLE5=I'm Having Fun
EXTD=
EXTT0=
EXTT1=
EXTT2=
EXTT3=
EXTT4=
EXTT5=
PLAYORDER=
